<!DOCTYPE svg PUBLIC "-//W3C//DTD SVG 1.1//EN" "http://www.w3.org/Graphics/SVG/1.1/DTD/svg11.dtd">
<svg width="768" height="512"
    xmlns="http://www.w3.org/2000/svg"
    xmlns:xlink="http://www.w3.org/1999/xlink">

    <g id="jogo" transform="scale(768,512)">

        <rect id="arena" x="0" y="0" width="1" height="1"
            style="fill:#ffdd99"/>

        <g id="balcony_v">

            <rect x="0" y="0" width="0.015" height="0.9"
            transform="translate(0.035, 0.05)"
            style="fill:#cc6600"/>

            <rect x="0" y="0" width="0.015" height="0.9"
            transform="translate(0.95, 0.05)"
            style="fill:#cc6600"/>

        </g>

        <g id="balcony_h">

            <rect x="0" y="0" width="0.93" height="0.015"
            transform="translate(0.035, 0.035)"
            style="fill:#cc6600"/>

            <rect x="0" y="0" width="0.93" height="0.015"
            transform="translate(0.035, 0.95)"
            style="fill:#cc6600"/>

        </g>

        <g id="chairs">

            <path id="chair_1"
            fill = "white"
            d=" M 0, 0
                L 0.02, 0
                C 0.02, 0.022, 0, 0.022, 0, 0
            " 
            transform="translate(0.04, 0.01)"/>

            <use href="#chair_1" x="0.1"/>
            <use href="#chair_1" x="0.2"/>
            <use href="#chair_1" x="0.3"/>
            <use href="#chair_1" x="0.4"/>
            <use href="#chair_1" x="0.5"/>
            <use href="#chair_1" x="0.6"/>
            <use href="#chair_1" x="0.7"/>
            <use href="#chair_1" x="0.8"/>
            <use href="#chair_1" x="0.9"/>
            <use href="#chair_1" x="0.05"/>
            <use href="#chair_1" x="0.15"/>
            <use href="#chair_1" x="0.25"/>
            <use href="#chair_1" x="0.35"/>
            <use href="#chair_1" x="0.45"/>
            <use href="#chair_1" x="0.55"/>
            <use href="#chair_1" x="0.65"/>
            <use href="#chair_1" x="0.75"/>
            <use href="#chair_1" x="0.85"/>


            <path id="chair_2"
            fill = "white"
            d=" M 0, 0
                L 0.02, 0
                C 0.02, 0.022, 0, 0.022, 0, 0
            " 
            transform="translate(0.06, 0.99) rotate(180)"/>

            <use href="#chair_2" x="0.1"/>
            <use href="#chair_2" x="0.2"/>
            <use href="#chair_2" x="0.3"/>
            <use href="#chair_2" x="0.4"/>
            <use href="#chair_2" x="0.5"/>
            <use href="#chair_2" x="0.6"/>
            <use href="#chair_2" x="0.7"/>
            <use href="#chair_2" x="0.8"/>
            <use href="#chair_2" x="0.9"/>
            <use href="#chair_2" x="0.05"/>
            <use href="#chair_2" x="0.15"/>
            <use href="#chair_2" x="0.25"/>
            <use href="#chair_2" x="0.35"/>
            <use href="#chair_2" x="0.45"/>
            <use href="#chair_2" x="0.55"/>
            <use href="#chair_2" x="0.65"/>
            <use href="#chair_2" x="0.75"/>
            <use href="#chair_2" x="0.85"/>


            <path id="chair_3"
            fill = "white"
            d=" M 0, 0
                L 0.02, 0
                C 0.02, 0.022, 0, 0.022, 0, 0
            " 
            transform="translate(0.01, 0.06) rotate(-90)"/>

            <use href="#chair_3" y="0.1"/>
            <use href="#chair_3" y="0.2"/>
            <use href="#chair_3" y="0.3"/>
            <use href="#chair_3" y="0.4"/>
            <use href="#chair_3" y="0.5"/>
            <use href="#chair_3" y="0.6"/>
            <use href="#chair_3" y="0.7"/>
            <use href="#chair_3" y="0.8"/>
            <use href="#chair_3" y="0.9"/>
            <use href="#chair_3" y="0.05"/>
            <use href="#chair_3" y="0.15"/>
            <use href="#chair_3" y="0.25"/>
            <use href="#chair_3" y="0.35"/>
            <use href="#chair_3" y="0.45"/>
            <use href="#chair_3" y="0.55"/>
            <use href="#chair_3" y="0.65"/>
            <use href="#chair_3" y="0.75"/>
            <use href="#chair_3" y="0.85"/>
        


            <path id="chair_4"
            fill = "white"
            d=" M 0, 0
                L 0.02, 0
                C 0.02, 0.022, 0, 0.022, 0, 0
            " 
            transform="translate(0.99, 0.04) rotate(90)"/>

            <use href="#chair_4" y="0.1"/>
            <use href="#chair_4" y="0.2"/>
            <use href="#chair_4" y="0.3"/>
            <use href="#chair_4" y="0.4"/>
            <use href="#chair_4" y="0.5"/>
            <use href="#chair_4" y="0.6"/>
            <use href="#chair_4" y="0.7"/>
            <use href="#chair_4" y="0.8"/>
            <use href="#chair_4" y="0.9"/>
            <use href="#chair_4" y="0.05"/>
            <use href="#chair_4" y="0.15"/>
            <use href="#chair_4" y="0.25"/>
            <use href="#chair_4" y="0.35"/>
            <use href="#chair_4" y="0.45"/>
            <use href="#chair_4" y="0.55"/>
            <use href="#chair_4" y="0.65"/>
            <use href="#chair_4" y="0.75"/>
            <use href="#chair_4" y="0.85"/>
        </g>

        <g id="ariete">

            <path id="body"
            fill = "gray" stroke="black"
            stroke-width="0.05"
            d=" M 0, 0.206
                Q 0.48, 0.38, 1, 0.3
                Q 0.958, 0.188, 0.769, 0.176
                Q 0.391, 0.165, 0, 0.206
            " />

            <path id="back_w"
            fill = "gray" stroke="black"
            stroke-width="0.05"
            d=" M 0.038, 0.016
                L 0.074, 0.198
                L 0.187, 0.189
                L 0.084, 0.012
                L 0.038, 0.016
            " />

            <path id="front_w"
            fill = "gray" stroke="black"
            stroke-width="0.05"
            d=" M 0.415, 0.266
                L 0.289, 0
                L 0.347, 0 
                L 0.553, 0.248
            " />

            <circle id="wheel_1" cx = "0.45" cy = "0.39" r = "0.04" fill = "Black"/>
            <circle id="wheel_2" cx = "0.55" cy = "0.39" r = "0.04" fill = "Black"/>

        </g>

        <g id="door1" transform="translate(0.5, 0.5)">

            <rect id="body" x="0" y="0" width="0.025" height="0.1"
            stroke="black"
            stroke-width="0.002"
            style="fill:#994d00"/>

            <path id="handle"
            fill = "#ffff00" stroke="black"
            stroke-width="0.001"
            d=" M 0.011, 0.057
                L 0.01, 0.057
                L 0.009, 0.055
                Q 0.005, 0.058, 0.009, 0.061
                L 0.01, 0.059
                L 0.012, 0.059
                L 0.011, 0.057
            " />

            <path id="window"
            fill = "#99ffff" stroke="black"
            stroke-width="0.001"
            d=" M 0.006, 0.007
                L 0.006, 0.039
                L 0.018, 0.039
                L 0.018, 0.007
                L 0.006, 0.007
            " />
        </g>
        <g id="door2" transform="translate(0.5, 0.5)">

            <rect id="body" x="0" y="0" width="0.025" height="0.1"
            stroke="black"
            stroke-width="0.002"
            style="fill:#994d00"/>

            <path id="handle"
            fill = "#ffff00" stroke="black"
            stroke-width="0.001"
            d=" M 0.011, 0.057
                L 0.01, 0.057
                L 0.009, 0.055
                Q 0.005, 0.058, 0.009, 0.061
                L 0.01, 0.059
                L 0.012, 0.059
                L 0.011, 0.057
            " />

            <path id="window"
            fill = "#99ffff" stroke="black"
            stroke-width="0.001"
            d=" M 0.006, 0.007
                L 0.006, 0.039
                L 0.018, 0.039
                L 0.018, 0.007
                L 0.006, 0.007
            " />
        </g>
        <g id="door3" transform="translate(0.5, 0.5)">

            <rect id="body" x="0" y="0" width="0.025" height="0.1"
            stroke="black"
            stroke-width="0.002"
            style="fill:#994d00"/>

            <path id="handle"
            fill = "#ffff00" stroke="black"
            stroke-width="0.001"
            d=" M 0.011, 0.057
                L 0.01, 0.057
                L 0.009, 0.055
                Q 0.005, 0.058, 0.009, 0.061
                L 0.01, 0.059
                L 0.012, 0.059
                L 0.011, 0.057
            " />

            <path id="window"
            fill = "#99ffff" stroke="black"
            stroke-width="0.001"
            d=" M 0.006, 0.007
                L 0.006, 0.039
                L 0.018, 0.039
                L 0.018, 0.007
                L 0.006, 0.007
            " />
        </g>
    </g> 
</svg>
